<svg width="70" height="70" viewBox="0 0 70 70" fill="none" xmlns="http://www.w3.org/2000/svg">
<path d="M29.1667 8.75V20.4167C29.1667 21.1902 28.8594 21.9321 28.3124 22.4791C27.7654 23.026 27.0235 23.3333 26.25 23.3333H14.5833M26.25 52.5V46.6667M35 52.5V35M43.75 52.5V43.75M55.4167 11.6667V58.3333C55.4167 59.1069 55.1094 59.8488 54.5624 60.3957C54.0154 60.9427 53.2735 61.25 52.5 61.25H17.5C16.7265 61.25 15.9846 60.9427 15.4376 60.3957C14.8906 59.8488 14.5833 59.1069 14.5833 58.3333V23.0825C14.5835 22.309 14.8909 21.5673 15.4379 21.0204L26.8537 9.60458C27.4006 9.05756 28.1423 8.75017 28.9158 8.75H52.5C53.2735 8.75 54.0154 9.05729 54.5624 9.60427C55.1094 10.1513 55.4167 10.8931 55.4167 11.6667Z" stroke="#4E5CFF" stroke-width="2" stroke-linecap="round" stroke-linejoin="round"/>
</svg>
