<svg width="70" height="70" viewBox="0 0 70 70" fill="none" xmlns="http://www.w3.org/2000/svg">
<path d="M44 16.6667H52.75M44 25.4167H52.75M44 34.1667H52.75M35.25 37.0833C34.3575 35.2954 32.5288 34.1667 30.5308 34.1667H22.4692C20.4713 34.1667 18.6425 35.2954 17.75 37.0833M11.9167 5H58.5833C59.3569 5 60.0988 5.30729 60.6457 5.85427C61.1927 6.40125 61.5 7.14312 61.5 7.91667V42.9167C61.5 43.6902 61.1927 44.4321 60.6457 44.9791C60.0988 45.526 59.3569 45.8333 58.5833 45.8333H11.9167C11.1431 45.8333 10.4013 45.526 9.85427 44.9791C9.30729 44.4321 9 43.6902 9 42.9167V7.91667C9 7.14312 9.30729 6.40125 9.85427 5.85427C10.4013 5.30729 11.1431 5 11.9167 5ZM32.3333 19.5833C32.3333 21.1304 31.7188 22.6142 30.6248 23.7081C29.5308 24.8021 28.0471 25.4167 26.5 25.4167C24.9529 25.4167 23.4692 24.8021 22.3752 23.7081C21.2812 22.6142 20.6667 21.1304 20.6667 19.5833C20.6667 18.0362 21.2812 16.5525 22.3752 15.4585C23.4692 14.3646 24.9529 13.75 26.5 13.75C28.0471 13.75 29.5308 14.3646 30.6248 15.4585C31.7188 16.5525 32.3333 18.0362 32.3333 19.5833Z" stroke="#4E5CFF" stroke-width="2" stroke-linecap="round" stroke-linejoin="round"/>
</svg>
